<?xml version="1.0" encoding="UTF-8" standalone="no"?>
<svg width="40px" height="40px" viewBox="0 0 40 40" version="1.1" xmlns="http://www.w3.org/2000/svg" xmlns:xlink="http://www.w3.org/1999/xlink">
    <!-- Generator: Sketch 40.3 (33839) - http://www.bohemiancoding.com/sketch -->
    <title>right</title>
    <desc>Created with Sketch.</desc>
    <defs></defs>
    <g id="Symbols" stroke="none" stroke-width="1" fill="none" fill-rule="evenodd">
        <g id="Icons/40b/right--gray" fill="#DAE1E6">
            <g id="right" transform="translate(20.000000, 20.000000) rotate(90.000000) translate(-20.000000, -20.000000) ">
                <path d="M20,40 C31.045695,40 40,31.045695 40,20 C40,8.954305 31.045695,0 20,0 C8.954305,0 0,8.954305 0,20 C0,31.045695 8.954305,40 20,40 Z M20.0479899,11 C21.1520907,11 22.6249692,11.68387 23.343531,12.5343012 L31.4981692,22.1854669 C32.2141454,23.032838 32.1583098,24.3522987 31.3760631,25.1299736 L31.1423639,25.362307 C30.3589503,26.1411419 29.0245526,26.2236478 28.1507558,25.53784 L20.0000142,19.1406516 L11.8492727,25.53784 C10.9804667,26.2197307 9.63991119,26.1399818 8.85766454,25.362307 L8.62396532,25.1299736 C7.84055175,24.3511386 7.78329742,23.0358981 8.50185924,22.1854669 L16.6564974,12.5343012 C17.3724737,11.6869301 18.8412793,11 19.9520386,11 L20.0479899,11 Z" id="Combined-Shape"></path>
            </g>
        </g>
    </g>
</svg>