<?xml version="1.0" encoding="UTF-8" standalone="no"?>
<svg width="40px" height="40px" viewBox="0 0 40 40" version="1.1" xmlns="http://www.w3.org/2000/svg" xmlns:xlink="http://www.w3.org/1999/xlink">
    <!-- Generator: Sketch 40.3 (33839) - http://www.bohemiancoding.com/sketch -->
    <title>Icons/40/star--green</title>
    <desc>Created with Sketch.</desc>
    <defs></defs>
    <g id="Symbols" stroke="none" stroke-width="1" fill="none" fill-rule="evenodd">
        <g id="Icons/40/star--green">
            <g id="star">
                <circle id="bkg" cx="20" cy="20" r="20"></circle>
                <path d="M20.8180009,28.1040594 C20.3662656,27.7915161 19.6368286,27.7894608 19.1821227,28.1040594 L16.3731086,30.0475394 C12.7396595,32.5614234 10.8236196,31.1596053 12.0884702,26.9333436 L13.06807,23.6601938 C13.2256057,23.1338179 13.0021512,22.4391742 12.5625558,22.1037695 L9.84688981,20.0317564 C6.33418611,17.3516153 7.07478149,15.0954511 11.483476,14.9928817 L14.8979161,14.9134439 C15.4470138,14.900669 16.0383484,14.4734108 16.2213695,13.9515207 L17.3520097,10.7274662 C18.8144885,6.55716396 21.1882414,6.56459586 22.6481139,10.7274662 L23.7787541,13.9515207 C23.9605795,14.4700013 24.5494989,14.9005849 25.1022075,14.9134439 L28.5166476,14.9928817 C32.9332129,15.0956342 33.6596775,17.3563916 30.1532338,20.0317564 L27.4375678,22.1037695 C27.0008443,22.436983 26.773482,23.1303564 26.9320536,23.6601938 L27.9116534,26.9333436 C29.1787621,31.1671504 27.253989,32.5569434 23.627015,30.0475394 L20.8180009,28.1040594 Z" fill="#66CC88"></path>
            </g>
        </g>
    </g>
</svg>